# xmcd
#
# Track frame offsets: 
#        150
#        19327
#        39439
#        60282
#        86707
#        101565
#        118050
#        148785
#        167577
#        181897
#        204922
#        228840
#        244977
#
# Disc length: 3571 seconds
#
# Revision: 0
# Processed by: cddbd v1.5.1PL0 Copyright (c) Steve Scherf et al.
# Submitted via: ExactAudioCopy v0.95a5
#
DISCID=a70df10d
DTITLE=B.B. Queen - Everybody's Favorite
DYEAR=1997
DGENRE=Blues
TTITLE0=Newsy Neighbors
TTITLE1=Let The Good Times Roll
TTITLE2=Talk To The Hand
TTITLE3=I'm Quttin' This Job
TTITLE4=Everybody's Favorite (Qualified And Able)
TTITLE5=Come Spend Some Time With Me
TTITLE6=Three O'Clock In The Morning
TTITLE7=Nowhere Road
TTITLE8=Movin' And Shakin'
TTITLE9=Psychic Lady
TTITLE10=Nowhere Road (dance mix)
TTITLE11=Movin' And Shakin' (dance mix)
TTITLE12=Talk To The Hand (instrumental dance mix)
EXTD=
EXTT0=
EXTT1=
EXTT2=
EXTT3=
EXTT4=
EXTT5=
EXTT6=
EXTT7=
EXTT8=
EXTT9=
EXTT10=
EXTT11=
EXTT12=
PLAYORDER=
